HIERARCHY
ROOT joint_Root
{
	OFFSET 0.0 0.0 0.0
	CHANNELS 6 Xposition Yposition Zposition Zrotation Xrotation Yrotation 
	JOINT Hips
	{
		OFFSET -17.1583 93.1646 452.98
		CHANNELS 6 Xposition Yposition Zposition Zrotation Xrotation Yrotation 
		JOINT Spine
		{
			OFFSET 15.7357 0.0 0.0
			CHANNELS 6 Xposition Yposition Zposition Zrotation Xrotation Yrotation 
			JOINT Chest
			{
				OFFSET 8.98455 -0.406207 0.0
				CHANNELS 6 Xposition Yposition Zposition Zrotation Xrotation Yrotation 
				JOINT Neck
				{
					OFFSET 16.3773 0.0 0.0
					CHANNELS 6 Xposition Yposition Zposition Zrotation Xrotation Yrotation 
					JOINT Head
					{
						OFFSET 6.45672 0.0 0.0
						CHANNELS 6 Xposition Yposition Zposition Zrotation Xrotation Yrotation 
						End Site
						{
							OFFSET 0.0 0.0 0.0
						}
					}
				}
				JOINT Shoulder_L
				{
					OFFSET 12.9942 -0.242716 4.98039
					CHANNELS 6 Xposition Yposition Zposition Zrotation Xrotation Yrotation 
					JOINT UpperArm_L
					{
						OFFSET 5.34809 0.0 0.0
						CHANNELS 6 Xposition Yposition Zposition Zrotation Xrotation Yrotation 
						JOINT LowerArm_L
						{
							OFFSET 24.3286 1.87007e-05 0.0
							CHANNELS 6 Xposition Yposition Zposition Zrotation Xrotation Yrotation 
							JOINT Hand_L
							{
								OFFSET 22.2916 0.0 0.0
								CHANNELS 6 Xposition Yposition Zposition Zrotation Xrotation Yrotation 
								End Site
								{
									OFFSET 0.0 0.0 0.0
								}
							}
						}
					}
				}
				JOINT Shoulder_R
				{
					OFFSET 12.9945 -0.242716 -4.98039
					CHANNELS 6 Xposition Yposition Zposition Zrotation Xrotation Yrotation 
					JOINT UpperArm_R
					{
						OFFSET -5.34813 0.0 0.0
						CHANNELS 6 Xposition Yposition Zposition Zrotation Xrotation Yrotation 
						JOINT LowerArm_R
						{
							OFFSET -24.3289 0.000322201 0.0
							CHANNELS 6 Xposition Yposition Zposition Zrotation Xrotation Yrotation 
							JOINT Hand_R
							{
								OFFSET -22.2915 -0.000108084 0.0
								CHANNELS 6 Xposition Yposition Zposition Zrotation Xrotation Yrotation 
								End Site
								{
									OFFSET 0.0 0.0 0.0
								}
							}
						}
					}
				}
			}
		}
		JOINT UpperLeg_L
		{
			OFFSET -2.19248 -6.46944 0.0
			CHANNELS 6 Xposition Yposition Zposition Zrotation Xrotation Yrotation 
			JOINT LowerLeg_L
			{
				OFFSET 39.0811 0.0 -1.23785e-05
				CHANNELS 6 Xposition Yposition Zposition Zrotation Xrotation Yrotation 
				JOINT Foot_L
				{
					OFFSET 40.9854 0.0 -1.26872e-05
					CHANNELS 6 Xposition Yposition Zposition Zrotation Xrotation Yrotation 
					JOINT Toes_L
					{
						OFFSET 11.7543 0.0 0.0
						CHANNELS 6 Xposition Yposition Zposition Zrotation Xrotation Yrotation 
						End Site
						{
							OFFSET 0.0 0.0 0.0
						}
					}
				}
			}
		}
		JOINT UpperLeg_R
		{
			OFFSET -2.19251 6.46944 0.0
			CHANNELS 6 Xposition Yposition Zposition Zrotation Xrotation Yrotation 
			JOINT LowerLeg_R
			{
				OFFSET -39.0811 -0.00228153 -0.0401928
				CHANNELS 6 Xposition Yposition Zposition Zrotation Xrotation Yrotation 
				JOINT Foot_R
				{
					OFFSET -40.9854 0.0 0.0
					CHANNELS 6 Xposition Yposition Zposition Zrotation Xrotation Yrotation 
					JOINT Toes_R
					{
						OFFSET -11.7543 0.0 0.0
						CHANNELS 6 Xposition Yposition Zposition Zrotation Xrotation Yrotation 
						End Site
						{
							OFFSET 0.0 0.0 0.0
						}
					}
				}
			}
		}
	}
}
MOTION
Frames:	9
Frame Time:	0.0333333
0.000000 0.000000 0.000000 0.000000 0.000000 -0.000000 -0.630631 93.397500 -1.661520 90.105300 5.907590 1.116870 15.735700 0.000005 -0.000001 81.257300 87.210400 -72.488500 8.984550 -0.406207 -0.000000 -2.069180 -1.597000 17.507800 16.377300 -0.000001 -0.000001 -3.281280 -1.042370 6.743050 6.456720 -0.000001 -0.000000 -2.495130 -3.319280 12.609500 12.994200 -0.242716 4.980390 -86.953800 -6.227240 -63.867300 5.348090 -0.000007 -0.000001 -31.951400 -55.786100 -58.795400 24.328600 0.000019 0.000005 0.000060 25.995900 -0.000002 22.291600 -0.000001 0.000005 35.448000 4.234040 20.799500 12.994500 -0.242716 -4.980390 89.118200 2.975850 -73.486100 -5.348130 -0.000001 -0.000004 -58.404800 3.729670 -6.620400 -24.328900 0.000322 -0.000009 2.844550 9.591200 -16.611100 -22.291500 -0.000108 -0.000004 8.481830 5.228430 1.996270 -2.192480 -6.469440 -0.000000 -174.982000 -5.068000 -0.778258 39.081100 -0.000007 -0.000012 0.010538 -0.050556 11.775500 40.985400 -0.000006 -0.000013 -1.704840 18.130900 -65.717600 11.754300 -0.000000 0.000003 -0.000175 0.170521 -9.660420 -2.192510 6.469440 -0.000001 175.452000 8.534620 -178.486000 -39.081100 -0.002282 -0.040193 0.022765 -0.094504 11.617700 -40.985400 0.000008 0.000006 -6.089980 1.928850 -67.399500 -11.754300 -0.000006 -0.000006 -0.010204 0.272825 -5.488820
0.000000 0.000000 0.000000 0.000000 0.000000 -0.000000 -0.588101 93.390600 -1.646760 90.146500 5.884780 1.156450 15.735700 0.000005 -0.000001 81.488400 87.197100 -72.763500 8.984550 -0.406207 -0.000000 -2.042510 -1.572950 17.420500 16.377300 -0.000001 -0.000001 -3.225860 -1.036360 6.649530 6.456720 -0.000001 -0.000000 -2.563160 -3.418340 12.666100 12.994200 -0.242716 4.980390 -86.969200 -6.199830 -63.882600 5.348090 -0.000007 -0.000001 -32.074600 -55.864700 -58.793800 24.328600 0.000019 0.000005 0.000054 26.012400 -0.000002 22.291600 -0.000001 0.000005 35.442000 4.230640 20.850800 12.994500 -0.242716 -4.980390 89.097900 3.032360 -73.424100 -5.348130 -0.000001 -0.000004 -58.678700 3.977510 -6.545870 -24.328900 0.000322 -0.000009 2.802610 9.401930 -16.687700 -22.291500 -0.000108 -0.000004 8.479290 5.228420 1.996490 -2.192480 -6.469440 -0.000000 -175.068000 -5.037240 -0.703205 39.081100 -0.000007 -0.000012 0.012675 -0.060830 11.770400 40.985400 -0.000006 -0.000013 -1.490340 18.057400 -65.842200 11.754300 -0.000000 0.000003 -0.000184 0.170661 -9.654740 -2.192510 6.469440 -0.000001 175.374000 8.535950 -178.464000 -39.081100 -0.002282 -0.040193 0.023710 -0.098430 11.694300 -40.985400 0.000008 0.000006 -6.026230 1.971790 -67.488600 -11.754300 -0.000006 -0.000006 -0.010349 0.273897 -5.444950
0.000000 0.000000 0.000000 0.000000 0.000000 -0.000000 -0.559328 93.383200 -1.618620 90.137400 5.899100 1.182990 15.735700 0.000005 -0.000001 81.426400 87.182700 -72.735200 8.984550 -0.406207 -0.000000 -2.015350 -1.578360 17.353500 16.377300 -0.000001 -0.000001 -3.150340 -1.063190 6.625140 6.456720 -0.000001 -0.000000 -2.623150 -3.458630 12.714500 12.994200 -0.242716 4.980390 -86.981300 -6.165780 -63.849100 5.348090 -0.000007 -0.000001 -31.953800 -55.835100 -58.661700 24.328600 0.000019 0.000005 0.000053 25.990400 -0.000002 22.291600 -0.000001 0.000005 35.358900 4.230170 20.858100 12.994500 -0.242716 -4.980390 89.084200 3.073010 -73.396100 -5.348130 -0.000001 -0.000004 -59.049800 4.092960 -6.486500 -24.328900 0.000322 -0.000009 2.819980 9.452690 -16.701200 -22.291500 -0.000108 -0.000004 8.487900 5.227340 2.024200 -2.192480 -6.469440 -0.000000 -175.082000 -4.966460 -0.726439 39.081100 -0.000007 -0.000012 0.013048 -0.061911 11.901900 40.985400 -0.000006 -0.000013 -1.477730 17.976400 -65.917800 11.754300 -0.000000 0.000003 -0.000280 0.172208 -9.591900 -2.192510 6.469440 -0.000001 175.354000 8.547670 -178.435000 -39.081100 -0.002282 -0.040193 0.023266 -0.095975 11.731400 -40.985400 0.000008 0.000006 -6.144830 1.988610 -67.469400 -11.754300 -0.000006 -0.000006 -0.009769 0.269573 -5.621810
0.000000 0.000000 0.000000 0.000000 0.000000 -0.000000 -0.531452 93.378600 -1.595950 90.148300 5.910210 1.192120 15.735700 0.000005 -0.000001 81.553500 87.186800 -72.899600 8.984550 -0.406207 -0.000000 -2.023880 -1.562280 17.279100 16.377300 -0.000001 -0.000001 -3.076020 -1.104420 6.580830 6.456720 -0.000001 -0.000000 -2.576740 -3.526500 12.732000 12.994200 -0.242716 4.980390 -87.004400 -6.119320 -63.852800 5.348090 -0.000007 -0.000001 -31.986100 -55.788600 -58.684700 24.328600 0.000019 0.000005 0.000054 25.880200 -0.000002 22.291600 -0.000001 0.000005 35.593400 4.238260 20.735600 12.994500 -0.242716 -4.980390 89.070400 3.109630 -73.348100 -5.348130 -0.000001 -0.000004 -59.411700 4.280840 -6.398510 -24.328900 0.000322 -0.000009 2.813590 9.448110 -16.672900 -22.291500 -0.000108 -0.000004 8.474160 5.227010 2.032760 -2.192480 -6.469440 -0.000000 -175.119000 -4.948760 -0.697194 39.081100 -0.000007 -0.000012 0.014266 -0.067611 11.915000 40.985400 -0.000006 -0.000013 -1.334550 17.986000 -66.019700 11.754300 -0.000000 0.000003 -0.000247 0.171686 -9.613090 -2.192510 6.469440 -0.000001 175.325000 8.587300 -178.408000 -39.081100 -0.002282 -0.040193 0.023687 -0.097883 11.745300 -40.985400 0.000008 0.000006 -6.082000 1.967310 -67.542600 -11.754300 -0.000006 -0.000006 -0.010185 0.272681 -5.494710
0.000000 0.000000 0.000000 0.000000 0.000000 -0.000000 -0.501470 93.363500 -1.545240 90.161000 5.954180 1.275240 15.735700 0.000005 -0.000001 81.621100 87.164000 -73.003000 8.984550 -0.406207 -0.000000 -1.979270 -1.555980 17.207800 16.377300 -0.000001 -0.000001 -3.028070 -1.129620 6.549860 6.456720 -0.000001 -0.000000 -2.498730 -3.584300 12.712400 12.994200 -0.242716 4.980390 -87.018600 -6.094070 -63.867500 5.348090 -0.000007 -0.000001 -32.218000 -55.760700 -58.816700 24.328600 0.000019 0.000005 0.000048 25.869300 -0.000002 22.291600 -0.000001 0.000005 35.562200 4.235420 20.778600 12.994500 -0.242716 -4.980390 89.064100 3.126850 -73.327600 -5.348130 -0.000001 -0.000004 -59.790300 4.488660 -6.321430 -24.328900 0.000322 -0.000009 2.786930 9.410120 -16.585900 -22.291500 -0.000108 -0.000004 8.408730 5.224870 2.087630 -2.192480 -6.469440 -0.000000 -175.165000 -4.844390 -0.622388 39.081100 -0.000007 -0.000012 0.016361 -0.076896 12.012300 40.985400 -0.000006 -0.000013 -1.136300 17.887200 -66.159700 11.754300 -0.000000 0.000003 -0.000182 0.170638 -9.655660 -2.192510 6.469440 -0.000001 175.289000 8.537630 -178.328000 -39.081100 -0.002282 -0.040193 0.024319 -0.100049 11.845000 -40.985400 0.000008 0.000006 -6.073520 1.917110 -67.629100 -11.754300 -0.000006 -0.000006 -0.010119 0.272194 -5.514620
0.000000 0.000000 0.000000 0.000000 0.000000 -0.000000 -0.476997 93.359200 -1.512600 90.182800 5.994770 1.282890 15.735700 0.000005 -0.000001 81.754400 87.157200 -73.166300 8.984550 -0.406207 -0.000000 -1.965850 -1.541350 17.148300 16.377300 -0.000001 -0.000001 -3.016870 -1.142500 6.527780 6.456720 -0.000001 -0.000000 -2.477400 -3.596350 12.671300 12.994200 -0.242716 4.980390 -87.034600 -6.071300 -63.904900 5.348090 -0.000007 -0.000001 -32.323100 -55.691500 -58.766000 24.328600 0.000019 0.000005 0.000057 25.837500 -0.000002 22.291600 -0.000001 0.000005 35.473700 4.234470 20.793000 12.994500 -0.242716 -4.980390 89.059000 3.140290 -73.309300 -5.348130 -0.000001 -0.000004 -60.139600 4.757840 -6.266650 -24.328900 0.000322 -0.000009 2.747040 9.332020 -16.489400 -22.291500 -0.000108 -0.000004 8.347030 5.226450 2.047090 -2.192480 -6.469440 -0.000000 -175.199000 -4.839890 -0.597635 39.081100 -0.000007 -0.000012 0.016602 -0.077955 12.022800 40.985400 -0.000006 -0.000013 -1.107120 17.909400 -66.181800 11.754300 -0.000000 0.000003 -0.000104 0.169350 -9.707990 -2.192510 6.469440 -0.000001 175.256000 8.445340 -178.294000 -39.081100 -0.002282 -0.040193 0.024352 -0.100044 11.863400 -40.985400 0.000008 0.000006 -6.137490 1.804400 -67.690300 -11.754300 -0.000006 -0.000006 -0.010382 0.274138 -5.435120
0.000000 0.000000 0.000000 0.000000 0.000000 -0.000000 -0.456285 93.351200 -1.481380 90.189100 6.039210 1.319750 15.735700 0.000005 -0.000001 81.677500 87.137600 -73.117400 8.984550 -0.406207 -0.000000 -1.928280 -1.549420 17.092500 16.377300 -0.000001 -0.000001 -3.002150 -1.137910 6.585620 6.456720 -0.000001 -0.000000 -2.504560 -3.545580 12.586600 12.994200 -0.242716 4.980390 -87.035700 -6.065870 -63.893100 5.348090 -0.000007 -0.000001 -32.577500 -55.627600 -58.833400 24.328600 0.000019 0.000005 0.000054 25.816300 -0.000002 22.291600 -0.000001 0.000005 35.414300 4.235220 20.781700 12.994500 -0.242716 -4.980390 89.058100 3.146680 -73.327100 -5.348130 -0.000001 -0.000004 -60.486000 5.031920 -6.183860 -24.328900 0.000322 -0.000009 2.760700 9.427070 -16.410300 -22.291500 -0.000108 -0.000004 8.368250 5.227450 2.021440 -2.192480 -6.469440 -0.000000 -175.218000 -4.803920 -0.577054 39.081100 -0.000007 -0.000012 0.017466 -0.081539 12.090500 40.985400 -0.000006 -0.000013 -1.022450 17.917100 -66.256300 11.754300 -0.000000 0.000003 -0.000159 0.170259 -9.671040 -2.192510 6.469440 -0.000001 175.237000 8.442440 -178.244000 -39.081100 -0.002282 -0.040193 0.024577 -0.100844 11.894500 -40.985400 0.000008 0.000006 -6.111240 1.743500 -67.723700 -11.754300 -0.000006 -0.000006 -0.010236 0.273062 -5.479120
0.000000 0.000000 0.000000 0.000000 0.000000 -0.000000 -0.441691 93.348000 -1.445220 90.197100 6.094890 1.304410 15.735700 0.000005 -0.000001 81.642600 87.144100 -73.104700 8.984550 -0.406207 -0.000000 -1.942150 -1.550160 17.047900 16.377300 -0.000001 -0.000001 -3.019440 -1.134170 6.608250 6.456720 -0.000001 -0.000000 -2.506750 -3.510690 12.515200 12.994200 -0.242716 4.980390 -87.035600 -6.075980 -63.930200 5.348090 -0.000007 -0.000001 -32.473000 -55.446500 -58.577500 24.328600 0.000019 0.000005 0.000056 25.763000 -0.000002 22.291600 -0.000001 0.000005 35.321600 4.236470 20.762900 12.994500 -0.242716 -4.980390 89.075400 3.090320 -73.334900 -5.348130 -0.000001 -0.000004 -60.860500 5.245500 -6.085350 -24.328900 0.000322 -0.000009 2.729100 9.372930 -16.320300 -22.291500 -0.000108 -0.000004 8.325430 5.229320 1.973130 -2.192480 -6.469440 -0.000000 -175.231000 -4.757720 -0.578404 39.081100 -0.000007 -0.000012 0.017759 -0.082817 12.103200 40.985400 -0.000006 -0.000013 -1.008000 17.930400 -66.300800 11.754300 -0.000000 0.000003 -0.000246 0.171666 -9.613900 -2.192510 6.469440 -0.000001 175.226000 8.416180 -178.214000 -39.081100 -0.002282 -0.040193 0.024360 -0.099897 11.884900 -40.985400 0.000008 0.000006 -6.168490 1.660500 -67.773300 -11.754300 -0.000006 -0.000006 -0.010392 0.274213 -5.432030
0.000000 0.000000 0.000000 0.000000 0.000000 -0.000000 -0.425548 93.349400 -1.406300 90.207300 6.115310 1.245390 15.735700 0.000005 -0.000001 81.796800 87.157700 -73.282800 8.984550 -0.406207 -0.000000 -1.968840 -1.531060 17.000100 16.377300 -0.000001 -0.000001 -3.040540 -1.108870 6.621420 6.456720 -0.000001 -0.000000 -2.550650 -3.489340 12.470200 12.994200 -0.242716 4.980390 -87.032000 -6.085810 -63.939300 5.348090 -0.000007 -0.000001 -32.671200 -55.393700 -58.575400 24.328600 0.000019 0.000005 0.000048 25.890600 -0.000002 22.291600 -0.000001 0.000005 35.315600 4.236600 20.760800 12.994500 -0.242716 -4.980390 89.092500 3.040220 -73.370900 -5.348130 -0.000001 -0.000004 -61.178700 5.467120 -5.943430 -24.328900 0.000322 -0.000009 2.718770 9.317770 -16.352000 -22.291500 -0.000108 -0.000004 8.251850 5.227350 2.024050 -2.192480 -6.469440 -0.000000 -175.253000 -4.728550 -0.584942 39.081100 -0.000007 -0.000012 0.017474 -0.081905 12.043800 40.985400 -0.000006 -0.000013 -1.016990 17.924500 -66.271600 11.754300 -0.000000 0.000003 -0.000083 0.169011 -9.721760 -2.192510 6.469440 -0.000001 175.200000 8.423720 -178.193000 -39.081100 -0.002282 -0.040193 0.023502 -0.096714 11.778500 -40.985400 0.000008 0.000006 -6.183810 1.694160 -67.693300 -11.754300 -0.000006 -0.000006 -0.009902 0.270573 -5.580940
